<svg version="1.1" id="Layer_1" xmlns="http://www.w3.org/2000/svg" xmlns:xlink="http://www.w3.org/1999/xlink" x="0px" y="0px"
	 width="100%" viewBox="0 0 1024 576" enable-background="new 0 0 1024 576" xml:space="preserve">
<path fill="#000000" opacity="1.000000" stroke="none" 
	d="
M352.394836,235.659180 
	C332.427765,229.568939 312.827942,223.625977 293.241516,217.638992 
	C287.826996,215.983932 283.826416,212.974716 283.075195,206.242294 
	C289.332886,205.552277 294.957550,207.301147 300.575439,208.151245 
	C358.005341,216.841248 415.410706,225.693802 472.815308,234.550217 
	C476.441498,235.109680 478.875732,234.688492 479.563141,230.339951 
	C481.109070,220.561111 486.894653,213.662354 495.448059,209.183792 
	C499.373566,207.128387 500.629944,204.427750 500.899292,200.109756 
	C501.924744,183.670746 503.486908,167.265915 504.653198,150.834457 
	C504.926727,146.980774 507.135986,146.734451 510.057922,146.759796 
	C513.639526,146.790894 513.394287,149.075287 513.232239,151.568008 
	C512.238098,166.858688 511.367950,182.156448 511.284882,197.485413 
	C511.274536,199.392059 510.709564,201.574615 513.389038,202.474014 
	C517.230774,203.763489 518.768005,202.138062 518.463928,197.401855 
	C517.503967,182.450607 516.622437,167.494080 515.799988,152.534668 
	C515.706116,150.827057 515.079834,148.864807 516.801636,147.362671 
	C519.627014,147.357483 519.279724,149.618866 519.416870,151.257553 
	C520.415894,163.196457 521.312012,175.143936 522.261536,187.087051 
	C522.643921,191.897461 523.007568,196.711258 523.515808,201.509094 
	C523.824219,204.420090 524.919189,206.716034 527.926819,208.146591 
	C537.704407,212.797287 544.093750,220.294830 545.905151,231.191681 
	C546.408203,234.217865 547.877441,234.943237 550.737427,234.499527 
	C581.815735,229.677856 612.894958,224.859833 643.995178,220.181641 
	C672.298706,215.924072 700.628723,211.842636 728.946106,207.676529 
	C732.994202,207.080948 737.036438,206.445694 741.097107,205.826401 
	C741.673218,212.101318 738.965820,215.728027 731.949951,217.946609 
	C721.631897,221.209442 711.236023,224.227753 700.860291,227.306351 
	C690.483826,230.385147 680.080261,233.372910 669.717285,236.495789 
	C668.038574,237.001663 666.023071,237.011383 664.721680,239.069412 
	C665.711914,240.799347 666.941589,242.569412 667.791199,244.506180 
	C669.938721,249.401779 667.944275,252.699844 662.616394,253.128799 
	C660.296204,253.315598 657.953247,253.251694 655.620728,253.246689 
	C647.622437,253.229538 646.674866,252.202835 647.311218,244.214676 
	C645.443665,243.143738 643.815308,244.397766 642.176086,244.902435 
	C622.601196,250.929062 603.077148,257.124420 583.450439,262.975952 
	C579.495728,264.155029 578.081116,266.003143 578.275146,270.015839 
	C578.556458,275.835388 578.311218,281.678833 578.393127,287.510651 
	C578.415222,289.088165 577.831360,290.869751 579.368408,292.237305 
	C581.679932,291.867493 581.310608,289.867035 581.672791,288.399536 
	C582.412598,285.402344 584.300659,283.824249 587.330872,283.719849 
	C590.631226,283.606110 592.721680,285.276093 593.416077,288.476807 
	C594.739685,294.577515 594.533386,300.732849 593.514771,306.831848 
	C593.025940,309.759033 590.927795,311.509033 587.912903,311.653137 
	C584.886536,311.797760 582.647461,310.316406 582.049683,307.311340 
	C581.480896,304.451965 579.708740,304.045746 577.332092,304.115356 
	C575.000916,304.183624 572.659546,304.245667 570.334717,304.107513 
	C567.355347,303.930450 565.224365,304.563751 564.373718,307.924591 
	C563.664001,310.728485 561.309998,311.739868 558.539673,311.569519 
	C555.894165,311.406860 554.118713,309.877869 553.545898,307.382416 
	C552.113403,301.142334 552.251526,294.802124 553.305298,288.549164 
	C553.778198,285.742950 555.860779,283.842499 558.967957,283.809204 
	C562.229553,283.774231 564.255493,285.582550 565.170593,288.608734 
	C565.593872,290.008514 565.584106,291.553101 567.351685,293.650482 
	C567.351685,284.768280 567.351685,276.872131 567.351685,268.303864 
	C560.428467,270.169037 553.876038,271.828491 547.413025,273.783356 
	C546.377258,274.096619 545.557861,275.632996 544.948547,276.770172 
	C538.600037,288.618134 527.986511,295.737976 516.824280,302.249786 
	C513.999329,303.897797 511.161011,303.781311 508.271576,302.204773 
	C496.716675,295.900146 486.131104,288.563232 479.917358,276.385315 
	C479.408722,275.388458 478.649078,274.080475 477.735138,273.800079 
	C471.274139,271.817810 464.742340,270.066437 457.554016,268.051025 
	C456.945923,276.851379 456.906952,284.784485 457.611084,292.819397 
	C460.051178,292.489349 459.630280,291.036835 459.873840,290.015839 
	C460.711029,286.506989 462.237366,283.530518 466.397949,283.750092 
	C470.405426,283.961578 471.911957,286.754303 472.500153,290.446777 
	C473.352295,295.796234 472.907349,301.086761 472.224304,306.379303 
	C471.837067,309.379456 470.087311,311.181824 466.991577,311.501404 
	C464.100647,311.799866 461.813568,310.541901 461.232483,307.829712 
	C460.457275,304.211334 458.162445,304.018829 455.310699,304.133362 
	C452.814545,304.233612 450.311218,304.212616 447.812347,304.169434 
	C445.430023,304.128265 443.716705,304.621277 443.083252,307.427094 
	C442.330353,310.762054 439.691711,311.789734 436.528259,311.357788 
	C433.419159,310.933289 432.102997,308.830811 431.668854,305.869904 
	C430.937286,300.879913 431.135437,295.919891 431.642944,290.927185 
	C432.042908,286.992706 433.580902,284.016815 437.848053,283.833618 
	C442.257446,283.644318 443.862488,286.670685 444.294342,290.572235 
	C444.382416,291.367920 444.260895,292.254944 445.293274,292.884460 
	C445.580597,292.685272 446.245331,292.443848 446.250458,292.189117 
	C446.420959,283.706665 446.583008,275.223175 446.615356,266.739288 
	C446.626556,263.800201 443.968384,263.608887 442.002289,263.005859 
	C424.650848,257.683868 407.277954,252.431824 389.911163,247.159912 
	C385.977509,245.965790 382.042877,244.774811 378.319427,243.646240 
	C377.016846,245.085236 377.495697,246.256058 377.652466,247.375534 
	C378.156647,250.976547 376.328369,252.777405 372.980896,253.042709 
	C369.831512,253.292282 366.650757,253.325363 363.490997,253.225494 
	C357.443604,253.034348 355.170258,249.492447 357.266113,243.836319 
	C357.893280,242.143723 359.444153,240.840652 359.374939,238.753571 
	C357.752777,236.541443 355.023376,236.673965 352.394836,235.659180 
M511.172577,262.486938 
	C513.276978,263.251007 515.218323,262.692413 516.779541,261.335083 
	C524.416626,254.695419 530.982727,247.246292 533.724182,237.185547 
	C535.980408,228.905624 533.341736,224.492020 524.892029,222.636597 
	C516.834839,220.867401 508.724854,220.731476 500.636780,222.656372 
	C491.548218,224.819351 488.946838,229.099747 492.070068,238.006851 
	C495.569092,247.985611 501.529083,256.275574 511.172577,262.486938 
z"/>
<path fill="#000000" opacity="1.000000" stroke="none" 
	d="
M354.970306,374.854797 
	C353.783325,378.383667 352.544891,381.491425 351.715698,384.704834 
	C350.871429,387.976288 349.459137,390.033508 345.664429,389.994995 
	C341.968658,389.957458 339.346252,389.065002 338.094879,385.101501 
	C336.499146,380.047485 334.413025,375.148315 332.221680,369.343719 
	C328.949005,374.839691 327.915405,380.366089 325.961823,385.502716 
	C325.090942,387.792480 324.335785,389.942169 321.210968,389.478790 
	C318.144501,389.024078 314.343506,390.681671 312.817474,386.133911 
	C307.578949,370.522461 302.261047,354.937592 296.993042,339.335999 
	C296.898254,339.055267 297.047943,338.691986 297.086395,338.367523 
	C303.766968,334.966248 307.052307,336.252350 309.337982,343.108856 
	C312.531494,352.688538 315.756470,362.257721 319.394867,373.103973 
	C322.980103,365.935669 324.066864,359.398865 326.192749,353.241638 
	C327.133148,350.517914 328.245575,348.590240 331.690063,348.602478 
	C334.971832,348.614075 336.803589,349.441528 337.828430,352.876984 
	C339.705750,359.170197 341.096100,365.660431 344.160614,372.244293 
	C347.294403,366.585846 348.456879,360.892853 350.275574,355.451935 
	C351.857300,350.719757 353.304962,345.942810 354.884460,341.209869 
	C356.101562,337.562927 362.406982,335.234375 365.499725,337.290100 
	C367.428741,338.572327 366.325226,340.269104 365.834625,341.773895 
	C362.278046,352.683167 358.682007,363.579620 354.970306,374.854797 
z"/>
<path fill="#000000" opacity="1.000000" stroke="none" 
	d="
M710.711060,349.023865 
	C724.534546,357.574310 727.915833,373.250183 718.836304,386.302460 
	C717.096680,388.803223 716.621094,390.563599 719.120544,392.624298 
	C720.006836,393.355011 720.741699,394.314636 721.394775,395.272644 
	C722.441650,396.808167 725.114319,398.024475 723.606140,400.239746 
	C722.000366,402.598419 719.280518,403.238159 716.447449,402.386261 
	C715.506836,402.103424 714.282410,401.798706 713.806091,401.088989 
	C709.808777,395.133087 704.028748,396.042938 697.985901,396.128174 
	C686.264587,396.293549 677.130493,389.532684 673.490540,379.066193 
	C670.110779,369.348022 672.770508,358.066803 680.742065,351.851532 
	C689.807556,344.783325 699.906555,344.032593 710.711060,349.023865 
M684.610229,363.336212 
	C682.281982,369.419708 682.009216,375.403564 686.295105,380.741669 
	C691.755859,387.542969 702.757812,387.864563 708.891724,381.612335 
	C714.591553,375.802551 714.209229,364.945953 708.116150,359.588287 
	C701.356201,353.644226 690.415649,355.103577 684.610229,363.336212 
z"/>
<path fill="#000000" opacity="1.000000" stroke="none" 
	d="
M498.309326,390.100037 
	C484.295135,389.493530 479.880005,379.804321 480.230957,369.192108 
	C480.678955,355.645782 487.510376,348.894775 500.255524,348.733154 
	C501.255035,348.720490 502.254791,348.726135 503.254456,348.725128 
	C512.450012,348.715973 512.576538,348.731262 513.648010,339.788300 
	C514.138550,335.693909 517.232788,336.571411 519.623291,336.143188 
	C522.179016,335.685333 523.919128,336.765015 523.999817,339.544373 
	C524.120483,343.705872 524.118896,347.871552 524.125488,352.035522 
	C524.141907,362.365204 524.150513,372.695007 524.129333,383.024689 
	C524.114990,390.032745 524.021118,390.115753 517.265076,390.126984 
	C511.100616,390.137238 504.936066,390.118042 498.309326,390.100037 
M495.044006,379.734711 
	C499.712128,381.626434 504.581421,380.279724 509.344849,380.629669 
	C512.567932,380.866455 513.941406,379.397278 513.722656,376.210876 
	C513.620361,374.721313 513.724060,373.218109 513.721802,371.721069 
	C513.699402,356.819519 513.697510,356.808105 498.885681,358.297455 
	C497.750824,358.411591 496.614777,358.756470 495.538849,359.154938 
	C494.089966,359.691559 493.035706,360.754974 492.253845,362.087128 
	C489.653656,366.517273 490.727386,375.259521 495.044006,379.734711 
z"/>
<path fill="#000000" opacity="1.000000" stroke="none" 
	d="
M397.941864,348.766846 
	C400.427856,348.778564 402.430878,348.695068 404.420044,348.824890 
	C411.721558,349.301392 416.443817,353.631256 417.426178,360.884338 
	C418.547638,369.164429 417.826202,377.500092 417.971222,385.810181 
	C418.022003,388.720032 416.560394,390.018951 413.671600,390.011475 
	C405.185394,389.989502 396.691040,390.273163 388.214874,389.989105 
	C378.889771,389.676575 373.992920,384.724457 374.260132,376.581421 
	C374.529968,368.358246 379.601440,363.906067 388.898163,363.822266 
	C394.853699,363.768555 400.810120,363.812164 406.967041,363.812164 
	C407.230103,359.493744 405.069122,358.303680 401.847992,358.277924 
	C395.857605,358.230011 389.864471,358.151459 383.876740,358.281586 
	C380.384216,358.357452 378.733368,357.179810 378.643372,353.424072 
	C378.545776,349.351654 380.724213,348.750275 383.973846,348.806366 
	C388.465179,348.883972 392.959503,348.790039 397.941864,348.766846 
M405.686432,373.617737 
	C400.240936,372.525635 394.741669,373.291290 389.268707,373.160614 
	C386.721741,373.099792 385.130219,374.223969 385.170746,377.013214 
	C385.211365,379.807617 386.873413,380.788696 389.390015,380.787689 
	C393.386536,380.786102 397.383667,380.798553 401.379425,380.734528 
	C407.138580,380.642303 407.555206,380.060272 405.686432,373.617737 
z"/>
<path fill="#000000" opacity="1.000000" stroke="none" 
	d="
M564.846863,373.323853 
	C558.073425,373.322327 551.776611,373.322327 545.219482,373.322327 
	C544.737000,378.656158 547.499207,380.472290 551.595459,380.617035 
	C557.586487,380.828735 563.592957,380.812561 569.586731,380.657043 
	C573.154297,380.564453 574.200317,382.245422 574.249023,385.504578 
	C574.296387,388.676910 573.050659,390.127075 569.871399,390.097809 
	C563.540955,390.039581 557.208191,390.143768 550.879761,390.014832 
	C548.903809,389.974548 546.880554,389.598175 544.978699,389.037384 
	C536.588135,386.563232 532.509644,377.672729 533.992798,365.342743 
	C535.280640,354.636475 540.096069,349.381805 549.247314,348.826599 
	C551.904968,348.665375 554.577271,348.714417 557.242798,348.719208 
	C573.330261,348.748016 579.402466,357.132294 574.642944,372.925201 
	C571.620300,373.922791 568.441345,373.095764 564.846863,373.323853 
M546.729553,360.075745 
	C544.053650,363.511810 545.478760,364.720703 549.226685,364.701141 
	C553.188782,364.680481 557.153442,364.763947 561.112000,364.640411 
	C562.752747,364.589172 565.226074,365.464172 565.471008,362.764954 
	C565.677795,360.485809 563.778809,358.979126 561.805786,358.710297 
	C556.957825,358.049713 552.004089,357.110840 546.729553,360.075745 
z"/>
<path fill="#000000" opacity="1.000000" stroke="none" 
	d="
M461.664856,365.625916 
	C461.262421,360.545685 458.566040,358.558960 454.079102,358.290131 
	C438.232056,357.340729 438.237946,357.305481 438.264801,373.138885 
	C438.271851,377.297913 438.138916,381.460388 438.269348,385.615021 
	C438.389465,389.441833 436.010986,389.877960 433.078339,389.925751 
	C430.050781,389.975067 427.834930,389.298401 427.849060,385.600586 
	C427.890381,374.787231 427.869568,363.973480 427.815308,353.160156 
	C427.800995,350.306274 428.927582,348.814056 431.925446,348.834808 
	C440.409088,348.893555 448.905670,348.602814 457.373413,348.981354 
	C465.034363,349.323853 470.410248,354.424316 471.510040,362.018219 
	C472.682495,370.114197 471.933289,378.290009 471.909576,386.431152 
	C471.899841,389.764923 469.442139,389.959076 466.987976,389.832916 
	C464.471619,389.703644 461.780823,389.683807 461.771301,386.024506 
	C461.754028,379.370087 461.711578,372.715698 461.664856,365.625916 
z"/>
<path fill="#000000" opacity="1.000000" stroke="none" 
	d="
M658.202148,351.015289 
	C658.203125,362.509827 658.020569,373.511414 658.294128,384.501617 
	C658.411804,389.230804 656.132446,390.116913 652.196472,390.043945 
	C648.512512,389.975616 645.704468,389.656433 645.761047,384.746765 
	C645.926208,370.419586 645.901917,356.087036 645.686584,341.760590 
	C645.621704,337.444885 647.793518,336.732452 651.264954,336.900787 
	C654.535645,337.059357 658.355713,336.199707 658.205750,341.520782 
	C658.121277,344.517395 658.198914,347.518585 658.202148,351.015289 
z"/>
<path fill="#000000" opacity="1.000000" stroke="none" 
	d="
M589.248230,390.029022 
	C586.021179,389.935760 585.098389,388.231445 585.082764,385.738953 
	C585.013794,374.762848 584.953857,363.786652 584.873230,352.810638 
	C584.851074,349.798340 586.477661,348.390717 589.273193,348.887054 
	C596.727844,350.210571 604.129578,348.402649 611.569153,348.736023 
	C614.995789,348.889587 616.274780,350.166565 616.248413,353.549622 
	C616.222534,356.875458 615.086853,358.583588 611.572632,358.298859 
	C610.252930,358.191925 608.910767,358.275818 607.583984,358.356873 
	C599.121765,358.873566 595.580322,362.490387 595.402710,370.909210 
	C595.307922,375.397949 595.105408,379.908783 595.428284,384.375153 
	C595.750732,388.835175 593.934875,390.518646 589.248230,390.029022 
z"/>
<path fill="#000000" opacity="1.000000" stroke="none" 
	d="
M633.276855,359.044281 
	C633.266968,368.164032 633.133362,376.794342 633.303955,385.418579 
	C633.375549,389.036896 631.698425,390.066467 628.493103,390.001251 
	C625.269348,389.935669 622.593750,389.728424 622.666565,385.284302 
	C622.837769,374.834259 622.849609,364.376434 622.633667,353.927795 
	C622.547974,349.783569 624.518188,348.949249 628.076233,348.832916 
	C631.979065,348.705322 633.617249,350.214813 633.285217,354.074341 
	C633.157654,355.556305 633.272034,357.059082 633.276855,359.044281 
z"/>
<path fill="#000000" opacity="1.000000" stroke="none" 
	d="
M517.746460,312.809753 
	C518.489014,316.514587 518.430542,319.833252 517.970642,323.121643 
	C517.525696,326.303406 515.714905,328.349854 512.326111,328.211304 
	C509.005646,328.075500 507.208221,325.984406 506.906067,322.799103 
	C506.672150,320.333038 506.725494,317.830048 506.794464,315.347443 
	C506.879242,312.296021 507.942749,309.702118 511.226776,308.962036 
	C514.199524,308.292114 516.382263,309.576141 517.746460,312.809753 
z"/>
<path fill="#000000" opacity="1.000000" stroke="none" 
	d="
M414.049164,416.231171 
	C413.793701,417.792297 413.477753,418.972168 411.946808,418.897583 
	C410.454376,418.824829 410.038116,417.637726 410.046082,416.439941 
	C410.070312,412.798340 410.172760,409.155548 410.343018,405.517792 
	C410.389252,404.530212 410.802521,403.549561 411.926392,403.221405 
	C413.272888,402.828186 414.222351,403.550934 414.837677,404.585938 
	C416.096313,406.703217 417.227844,408.896057 418.569092,411.345123 
	C421.315094,409.709442 421.642517,406.822968 423.128174,404.778900 
	C423.835052,403.806396 424.595062,402.872467 425.964722,403.252808 
	C427.409027,403.653870 427.496002,404.901337 427.346832,406.073456 
	C426.815308,410.249512 428.337708,414.755646 426.011383,418.898163 
	C422.435608,417.377747 424.535095,414.357910 423.144348,412.500366 
	C421.123566,413.381134 421.113159,416.307220 418.792297,416.842163 
	C416.308685,416.625641 416.435059,413.872681 414.813568,412.735077 
	C413.601654,413.573456 414.433411,414.863861 414.049164,416.231171 
z"/>
<path fill="#000000" opacity="1.000000" stroke="none" 
	d="
M448.334534,417.074219 
	C448.153259,413.358673 448.053223,410.035095 448.080078,406.712555 
	C448.113953,402.518158 451.033295,402.460175 454.022125,402.838501 
	C457.297150,403.253082 460.845337,405.216339 459.489166,408.357758 
	C457.855621,412.141693 458.640167,415.110565 459.956543,418.543182 
	C455.517151,419.820465 455.596893,415.368713 453.388489,414.179352 
	C450.986694,414.133972 453.624115,421.634705 448.334534,417.074219 
z"/>
<path fill="#000000" opacity="1.000000" stroke="none" 
	d="
M498.117371,402.811829 
	C506.641571,402.781464 507.725555,403.997894 505.775848,411.381531 
	C505.043518,414.154907 508.277802,415.662201 507.549255,418.519897 
	C502.919464,420.578522 503.399414,414.269104 500.295837,413.894348 
	C498.397736,414.984589 500.327759,418.031464 497.840240,418.799133 
	C494.872253,415.895966 494.796844,406.457764 498.117371,402.811829 
z"/>
<path fill="#000000" opacity="1.000000" stroke="none" 
	d="
M625.159424,403.264404 
	C630.211548,405.462891 631.195801,409.268982 630.103882,413.737183 
	C629.229065,417.317291 624.521423,419.625458 619.891907,419.073547 
	C619.085571,418.977417 617.925842,418.926453 617.572327,418.412415 
	C614.663635,414.182831 615.971313,409.462585 616.566895,404.986267 
	C617.012817,401.634155 620.176392,402.970001 622.310608,402.791687 
	C623.115540,402.724396 623.949097,403.000610 625.159424,403.264404 
M626.611755,410.586639 
	C625.729187,407.620941 624.268372,404.744659 620.901428,407.373871 
	C619.266357,408.650726 620.189392,411.754974 620.463684,414.039337 
	C620.577271,414.985107 621.394531,415.475159 622.270874,415.357086 
	C624.627075,415.039551 626.234436,413.807831 626.611755,410.586639 
z"/>
<path fill="#000000" opacity="1.000000" stroke="none" 
	d="
M664.336060,412.822235 
	C664.130615,415.027466 664.797729,416.946869 663.113098,418.709747 
	C659.034119,417.919220 658.034607,413.513977 654.888916,411.368103 
	C653.258179,413.495514 655.435669,416.691162 653.098083,418.614594 
	C650.188599,416.389679 649.591736,409.423950 651.748596,403.119537 
	C656.071350,403.700562 656.742554,408.577667 660.152344,410.309143 
	C661.758423,408.234863 659.305237,404.985046 662.376404,402.986633 
	C665.826477,405.568787 663.653259,409.319702 664.336060,412.822235 
z"/>
<path fill="#000000" opacity="1.000000" stroke="none" 
	d="
M603.894653,405.523102 
	C603.936157,408.438263 604.124268,410.954742 603.837463,413.415955 
	C603.409485,417.088684 601.002197,419.035370 597.409790,419.157501 
	C593.648865,419.285400 590.887207,417.540833 590.241394,413.658081 
	C589.836548,411.224304 589.977478,408.687439 590.007996,406.198486 
	C590.024231,404.871399 590.226440,403.246429 591.944702,403.215546 
	C594.061951,403.177490 593.960938,405.058655 594.060059,406.506256 
	C594.196472,408.495880 594.155518,410.497009 594.251404,412.490265 
	C594.331665,414.159119 595.005371,415.485840 596.892212,415.453156 
	C598.661804,415.422485 599.595154,414.287079 599.677612,412.556946 
	C599.788391,410.231903 599.786072,407.901642 599.881287,405.575592 
	C599.924194,404.527496 600.290771,403.548431 601.410095,403.252960 
	C602.917542,402.855011 603.456421,403.911591 603.894653,405.523102 
z"/>
<path fill="#000000" opacity="1.000000" stroke="none" 
	d="
M645.740417,412.316956 
	C646.489990,414.628540 648.145630,416.415161 647.055115,418.667267 
	C646.644409,418.801575 646.173157,419.084198 646.052979,418.976196 
	C642.566162,415.841919 639.347595,413.292145 635.257751,418.607666 
	C634.202881,419.978699 632.483521,418.075500 633.133118,416.309235 
	C634.616882,412.275116 636.165894,408.233215 638.122009,404.416718 
	C639.265503,402.185822 641.193604,402.659943 642.299316,404.739777 
	C643.539795,407.073212 644.495117,409.558197 645.740417,412.316956 
z"/>
<path fill="#000000" opacity="1.000000" stroke="none" 
	d="
M626.327271,332.776611 
	C630.807983,332.423096 633.701599,333.963409 634.171814,338.250854 
	C634.538147,341.591461 632.949036,344.218567 629.594360,345.066803 
	C626.084229,345.954376 623.183777,344.567902 621.920349,341.142090 
	C620.479431,337.234833 621.931946,334.326782 626.327271,332.776611 
z"/>
<path fill="#000000" opacity="1.000000" stroke="none" 
	d="
M585.725708,405.113861 
	C585.099731,408.379517 583.175049,406.359039 581.838501,406.315430 
	C578.526550,406.207336 576.705566,407.864349 576.558716,410.929077 
	C576.405334,414.131622 578.361023,415.544312 581.292969,415.559692 
	C583.044556,413.319061 579.398071,413.177734 580.887939,410.728729 
	C582.548950,409.395325 584.949829,409.497437 586.104187,412.256897 
	C587.131836,414.713531 587.074707,417.526520 583.428589,418.553101 
	C579.425110,419.680359 576.048584,418.845734 573.917175,415.288086 
	C571.724609,411.628448 572.051086,407.759460 575.344421,404.900848 
	C578.500122,402.161591 582.127258,401.480896 585.725708,405.113861 
z"/>
<path fill="#000000" opacity="1.000000" stroke="none" 
	d="
M440.962646,417.027954 
	C436.637970,412.705597 434.591492,417.772552 431.812805,418.979340 
	C429.807098,417.713135 430.662384,416.241119 431.162109,414.923462 
	C432.334015,411.833099 433.624725,408.788055 434.836761,405.712585 
	C435.346985,404.417938 436.009521,403.224548 437.542114,403.161896 
	C439.066376,403.099548 439.915253,404.162201 440.436493,405.473358 
	C441.780518,408.854279 443.126587,412.234741 444.423157,415.633972 
	C444.828674,416.697144 445.382172,417.972351 443.987579,418.686188 
	C442.628296,419.381927 441.900391,418.235260 440.962646,417.027954 
z"/>
<path fill="#000000" opacity="1.000000" stroke="none" 
	d="
M521.370117,418.523804 
	C517.452576,411.860291 514.199646,417.264465 509.813049,419.752563 
	C510.602692,413.124634 513.213989,408.423157 515.363281,403.636139 
	C515.881409,402.482117 517.673401,402.786377 518.333923,403.889404 
	C520.897461,408.170746 522.946350,412.733887 524.132507,417.573944 
	C524.505066,419.094055 522.909363,419.203796 521.370117,418.523804 
z"/>
<path fill="#000000" opacity="1.000000" stroke="none" 
	d="
M543.405151,403.143799 
	C546.553223,402.717621 549.328796,402.194244 551.881165,403.550262 
	C551.793091,407.551605 547.632080,405.052460 546.731873,407.463470 
	C547.342468,410.111267 552.095520,407.697449 551.861328,411.299500 
	C550.719849,413.940033 547.309570,411.052795 546.379639,413.881104 
	C546.958435,417.076019 550.922729,414.400635 551.985229,417.398132 
	C549.986023,420.429535 546.799255,419.212860 544.156006,418.880219 
	C541.498047,418.545715 541.744080,415.956116 541.884827,414.038727 
	C542.146973,410.468170 540.731628,406.704559 543.405151,403.143799 
z"/>
<path fill="#000000" opacity="1.000000" stroke="none" 
	d="
M536.451538,412.395508 
	C535.837891,414.181702 535.562500,415.727142 534.799805,416.974609 
	C533.132141,419.702209 530.978088,419.963501 529.710876,416.821777 
	C527.988708,412.551880 525.880981,408.362305 525.093994,402.807037 
	C530.855835,403.399597 529.482300,409.038208 532.571045,411.658173 
	C533.455444,409.414154 534.262695,407.217438 535.190796,405.072968 
	C535.658875,403.991241 536.384277,402.873138 537.812561,403.413635 
	C539.289429,403.972412 538.949036,405.245667 538.565674,406.378571 
	C537.926392,408.267822 537.237122,410.140167 536.451538,412.395508 
z"/>
<path fill="#000000" opacity="1.000000" stroke="none" 
	d="
M683.694092,408.140869 
	C683.867371,405.768799 683.268921,403.266876 686.069214,402.966370 
	C688.632019,402.691376 691.577759,401.822113 693.573364,404.671265 
	C692.291931,407.319946 689.272705,405.302490 687.883667,407.161530 
	C688.241333,410.103821 692.652100,407.831207 692.716309,411.017639 
	C691.798523,413.394226 688.259705,411.102417 687.559937,413.992828 
	C688.304626,417.099152 691.989929,414.473694 693.324402,417.064850 
	C691.920105,420.544159 688.735962,418.996613 686.318970,418.997223 
	C683.456299,418.997925 683.737244,416.540955 683.699036,414.572296 
	C683.660522,412.587921 683.690979,410.602203 683.694092,408.140869 
z"/>
<path fill="#000000" opacity="1.000000" stroke="none" 
	d="
M405.787476,403.683411 
	C407.923218,409.238159 401.981628,404.643463 401.816345,407.881989 
	C404.161774,410.415344 410.528564,412.468231 405.378906,417.751160 
	C402.747284,420.450897 399.440369,419.766663 397.173431,416.489227 
	C398.555389,413.355804 402.051270,417.462524 403.244537,413.912384 
	C400.760834,411.783112 395.580200,410.792694 397.834534,405.739410 
	C399.290863,402.474854 402.348022,402.217133 405.787476,403.683411 
z"/>
<path fill="#000000" opacity="1.000000" stroke="none" 
	d="
M679.831360,415.174255 
	C680.615967,418.807831 677.771667,418.678253 675.903137,419.019226 
	C673.094849,419.531677 670.537781,418.452087 669.013489,415.972931 
	C666.911377,412.553864 666.965576,408.901978 669.329468,405.670959 
	C671.405273,402.833527 674.525574,402.219299 677.845520,403.132263 
	C679.102966,403.478119 680.539917,404.103424 680.142761,405.845306 
	C679.780579,407.433807 678.493774,407.237793 677.337036,406.820923 
	C675.236267,406.063812 673.369751,406.153839 672.108643,408.244202 
	C670.972717,410.127228 671.028748,412.068756 672.327087,413.859650 
	C673.784546,415.870026 675.664978,415.583405 677.686523,414.789917 
	C678.224121,414.578888 678.962341,414.878754 679.831360,415.174255 
z"/>
<path fill="#000000" opacity="1.000000" stroke="none" 
	d="
M491.283569,402.964569 
	C491.995789,403.597565 492.307434,404.123444 492.619080,404.649323 
	C487.449310,407.305267 489.443787,412.266144 488.841888,416.391449 
	C488.693542,417.408447 488.408875,418.338257 486.812256,419.014740 
	C482.019287,415.421936 488.492126,406.995392 480.425690,404.751587 
	C484.057983,401.655579 487.615265,403.128174 491.283569,402.964569 
z"/>
<path fill="#000000" opacity="1.000000" stroke="none" 
	d="
M465.652649,408.710205 
	C465.523621,406.086517 462.373199,406.641327 462.096130,403.775055 
	C465.913544,402.165802 469.659698,402.207855 473.936005,403.887207 
	C469.831299,407.979431 469.863251,407.979370 469.875122,414.497437 
	C469.878235,416.216614 470.374756,418.740906 467.863342,418.788116 
	C465.228485,418.837585 465.959717,416.221924 465.814819,414.563599 
	C465.657227,412.759979 465.726685,410.936523 465.652649,408.710205 
z"/>
<path fill="#000000" opacity="1.000000" stroke="none" 
	d="
M560.250610,415.002441 
	C561.600891,415.423859 562.801697,415.436646 563.857300,415.834473 
	C565.304626,416.379944 565.547729,417.926605 564.327637,418.484558 
	C561.886902,419.600708 559.040283,419.955017 556.768311,418.150818 
	C554.595154,416.425140 555.609436,405.285736 558.351990,402.641785 
	C560.526367,406.626770 558.555908,411.013153 560.250610,415.002441 
z"/>
<path fill="#000000" opacity="1.000000" stroke="none" 
	d="
M607.712158,413.763367 
	C607.721191,410.832458 607.696106,408.359985 607.755432,405.889557 
	C607.787598,404.548553 607.908691,403.012268 609.734009,403.073975 
	C611.612061,403.137451 611.399414,404.770905 611.479553,406.049652 
	C611.644226,408.678253 611.924133,411.312683 611.863037,413.937866 
	C611.820862,415.751831 612.431152,418.590912 609.630676,418.574677 
	C607.126343,418.560181 607.962646,415.887787 607.712158,413.763367 
z"/>
</svg>